<?xml version="1.0" encoding="UTF-8"?>
<svg width="126px" height="126px" viewBox="0 0 126 126" version="1.1" xmlns="http://www.w3.org/2000/svg" xmlns:xlink="http://www.w3.org/1999/xlink">
    <!-- Generator: Sketch 64 (93537) - https://sketch.com -->
    <title>Group 9 Copy</title>
    <desc>Created with Sketch.</desc>
    <defs>
        <polygon id="path-1" points="0 99.7643848 76.7197654 99.7643848 76.7197654 0 0 0"></polygon>
    </defs>
    <g id="LANDING" stroke="none" stroke-width="1" fill="none" fill-rule="evenodd">
        <g id="BetterLife-Landing" transform="translate(-50.000000, -160.000000)">
            <g id="Group-9-Copy" transform="translate(50.000000, 160.000000)">
                <circle id="Oval-Copy" fill="#FFFFFF" cx="63" cy="63" r="63"></circle>
                <g id="Group-39" transform="translate(24.636872, 13.374302)">
                    <path d="M2.11259108,88.8149372 L3.41859763,88.8149372 C4.373252,88.8149372 5.07448009,88.6284883 5.52228188,88.2555903 C5.99370399,87.8533304 6.22941504,87.3419415 6.22941504,86.7228918 C6.22941504,86.1219487 6.00256161,85.6169216 5.54934682,85.2078105 C5.1079422,84.8055505 4.31912212,84.6039312 3.18288658,84.6039312 L2.11259108,84.6039312 L2.11259108,88.8149372 Z M2.11259108,82.8456343 L2.77445197,82.8456343 C3.56031952,82.8456343 4.13606468,82.6728876 4.50217955,82.3269049 C4.86780234,81.9814116 5.05036768,81.4719802 5.05036768,80.7986107 C5.05036768,80.1433478 4.86337353,79.6461506 4.48840104,79.3060403 C4.11342854,78.9664194 3.56917713,78.7966089 2.85613889,78.7966089 L2.11259108,78.7966089 L2.11259108,82.8456343 Z M4.92089883e-05,90.7895345 L4.92089883e-05,76.8670334 L2.10373346,76.8670334 C3.0406726,76.8670334 3.78717295,76.9389704 4.34323452,77.0833338 C4.90520117,77.2276972 5.38006791,77.4714021 5.76685055,77.8139593 C6.16003037,78.1687506 6.47103118,78.6101599 6.70083715,79.1396554 C6.93654821,79.6745339 7.05415769,80.2157742 7.05415769,80.7623975 C7.05415769,81.7602175 6.67032758,82.605355 5.90266736,83.2963416 C6.64621518,83.5488552 7.23278632,83.9907539 7.66188869,84.6220378 C8.09738824,85.2469599 8.31489197,85.9746491 8.31489197,86.8041268 C8.31489197,87.8919904 7.92761723,88.812001 7.15405193,89.5631799 C6.68853491,90.0261214 6.16593545,90.3476357 5.58526939,90.5282123 C4.95096553,90.7024271 4.15574827,90.7895345 3.20060181,90.7895345 L4.92089883e-05,90.7895345 Z" id="Fill-1" fill="#124F9D"></path>
                    <path d="M16.5388949,85.2171085 C16.254467,84.1351173 15.5689858,83.593877 14.480483,83.593877 C14.2324697,83.593877 14.0002032,83.6315583 13.7822074,83.7069209 C13.5651958,83.7817941 13.3668835,83.8904336 13.1882549,84.0313714 C13.0101184,84.1727986 12.8575705,84.3421197 12.7306113,84.5408028 C12.6036521,84.7389966 12.5067104,84.9645949 12.4402783,85.2171085 L16.5388949,85.2171085 Z M18.6337216,86.8760638 L12.3044615,86.8760638 C12.3585914,87.5978806 12.5947945,88.1719085 13.0120867,88.5986369 C13.4288869,89.0194928 13.9637886,89.2299207 14.6167919,89.2299207 C15.1241365,89.2299207 15.5443813,89.1095364 15.877034,88.8687676 C16.2032896,88.6284883 16.5753096,88.1836533 16.9921097,87.5342629 L18.7149164,88.4899973 C18.4486958,88.941194 18.1677125,89.3273048 17.8714743,89.6488192 C17.5752362,89.9703335 17.2583303,90.2350813 16.9197725,90.442573 C16.5812147,90.6500648 16.2155919,90.8017686 15.8224121,90.8976846 C15.4297243,90.99409 15.0035745,91.042048 14.5439626,91.042048 C13.2261458,91.042048 12.1686447,90.6211921 11.3704749,89.7799696 C10.5723051,88.931896 10.1737123,87.8078192 10.1737123,86.4072499 C10.1737123,85.0184253 10.5604949,83.8943485 11.3340602,83.0350195 C12.1140227,82.1874352 13.1479036,81.7636431 14.4357028,81.7636431 C15.7348201,81.7636431 16.7623037,82.1752011 17.5181538,82.9988063 C18.2676067,83.8165391 18.6425792,84.9499139 18.6425792,86.3984413 L18.6337216,86.8760638 Z" id="Fill-3" fill="#124F9D"></path>
                    <polygon id="Fill-5" fill="#124F9D" points="23.130931 83.9004656 23.130931 90.7897791 21.0907264 90.7897791 21.0907264 83.9004656 20.2202194 83.9004656 20.2202194 82.006614 21.0907264 82.006614 21.0907264 78.7875556 23.130931 78.7875556 23.130931 82.006614 24.7179209 82.006614 24.7179209 83.9004656"></polygon>
                    <polygon id="Fill-7" fill="#124F9D" points="28.2087081 83.9004656 28.2087081 90.7897791 26.1685035 90.7897791 26.1685035 83.9004656 25.2979964 83.9004656 25.2979964 82.006614 26.1685035 82.006614 26.1685035 78.7875556 28.2087081 78.7875556 28.2087081 82.006614 29.795698 82.006614 29.795698 83.9004656"></polygon>
                    <path d="M37.2943605,85.2171085 C37.0099325,84.1351173 36.3239592,83.593877 35.2359485,83.593877 C34.9879352,83.593877 34.7551767,83.6315583 34.5376729,83.7069209 C34.3201692,83.7817941 34.121857,83.8904336 33.9437204,84.0313714 C33.7655839,84.1727986 33.613036,84.3421197 33.4860769,84.5408028 C33.3591177,84.7389966 33.262176,84.9645949 33.1957438,85.2171085 L37.2943605,85.2171085 Z M39.388695,86.8760638 L33.059927,86.8760638 C33.1140569,87.5978806 33.349768,88.1719085 33.7670602,88.5986369 C34.1843524,89.0194928 34.7192541,89.2299207 35.3717653,89.2299207 C35.879602,89.2299207 36.2998468,89.1095364 36.6320075,88.8687676 C36.9587552,88.6284883 37.330283,88.1836533 37.7475752,87.5342629 L39.4703819,88.4899973 C39.2041613,88.941194 38.923178,89.3273048 38.6269399,89.6488192 C38.3307018,89.9703335 38.0133038,90.2350813 37.6747459,90.442573 C37.3366802,90.6500648 36.9705653,90.8017686 36.5778776,90.8976846 C36.1851899,90.99409 35.7585479,91.042048 35.2994281,91.042048 C33.9816114,91.042048 32.9241102,90.6211921 32.1259404,89.7799696 C31.3277706,88.931896 30.9286857,87.8078192 30.9286857,86.4072499 C30.9286857,85.0184253 31.3154684,83.8943485 32.0895258,83.0350195 C32.8694882,82.1874352 33.902877,81.7636431 35.1906762,81.7636431 C36.4902856,81.7636431 37.5177693,82.1752011 38.2736193,82.9988063 C39.0230722,83.8165391 39.3980447,84.9499139 39.3980447,86.3984413 L39.388695,86.8760638 Z" id="Fill-9" fill="#124F9D"></path>
                    <path d="M41.6193877,82.0068098 L43.6595923,82.0068098 L43.6595923,82.7912656 C44.0345648,82.4007505 44.3667255,82.1330665 44.6570585,81.9887032 C44.9528045,81.8384674 45.3036646,81.7635942 45.7091467,81.7635942 C46.2465088,81.7635942 46.8089676,81.937809 47.3955387,82.2862385 L46.4615521,84.143877 C46.0742774,83.8673844 45.6963523,83.7293828 45.3282691,83.7293828 C44.2156539,83.7293828 43.6595923,84.5652222 43.6595923,86.2359224 L43.6595923,90.7894855 L41.6193877,90.7894855 L41.6193877,82.0068098 Z" id="Fill-11" fill="#124F9D"></path>
                    <polygon id="Fill-13" fill="#458AC9" points="52.446054 76.8670334 52.446054 88.8149372 56.562878 88.8149372 56.562878 90.7895345 50.3335121 90.7895345 50.3335121 76.8670334"></polygon>
                    <mask id="mask-2" fill="white">
                        <use xlink:href="#path-1"></use>
                    </mask>
                    <g id="Clip-16"></g>
                    <path d="M58.1768344,90.7893877 L60.217039,90.7893877 L60.217039,82.0067119 L58.1768344,82.0067119 L58.1768344,90.7893877 Z M57.868294,78.3550527 C57.868294,78.0002614 57.9982058,77.6939175 58.2585213,77.4350421 C58.5183448,77.1766562 58.8293456,77.0474632 59.1925079,77.0474632 C59.5610832,77.0474632 59.8755287,77.1766562 60.1353521,77.4350421 C60.3951756,77.6875557 60.5250873,77.9973252 60.5250873,78.3638613 C60.5250873,78.7308869 60.3951756,79.0435926 60.1353521,79.3014892 C59.8814337,79.5603645 59.5699408,79.6895575 59.2013655,79.6895575 C58.8322981,79.6895575 58.5183448,79.5603645 58.2585213,79.3014892 C57.9982058,79.0435926 57.868294,78.7279507 57.868294,78.3550527 L57.868294,78.3550527 Z" id="Fill-15" fill="#458AC9" mask="url(#mask-2)"></path>
                    <path d="M64.9138894,83.9004656 L64.9138894,90.7897791 L62.864335,90.7897791 L62.864335,83.9004656 L62.1394866,83.9004656 L62.1394866,82.006614 L62.864335,82.006614 L62.864335,78.616277 C62.864335,77.5103068 63.0582184,76.7287872 63.445001,76.2722074 C63.9769502,75.6345618 64.7505155,75.3159836 65.766189,75.3159836 C66.1288593,75.3159836 66.5850266,75.4211976 67.1351831,75.6316256 L67.1351831,77.7055644 L66.9270291,77.5974142 C66.4856244,77.3752414 66.1229542,77.2636657 65.8385262,77.2636657 C65.4763481,77.2636657 65.2312873,77.393348 65.1043281,77.6512446 C64.9768769,77.9042475 64.9138894,78.391168 64.9138894,79.1124955 L64.9138894,82.006614 L67.1351831,82.006614 L67.1351831,83.9004656 L64.9138894,83.9004656 Z" id="Fill-17" fill="#458AC9" mask="url(#mask-2)"></path>
                    <path d="M74.5434979,85.2171085 C74.2590699,84.1351173 73.5730966,83.593877 72.4850859,83.593877 C72.2370726,83.593877 72.0048062,83.6315583 71.7868103,83.7069209 C71.5693066,83.7817941 71.3714865,83.8904336 71.1928578,84.0313714 C71.0147213,84.1727986 70.8621734,84.3421197 70.7352143,84.5408028 C70.6082551,84.7389966 70.5113134,84.9645949 70.4448812,85.2171085 L74.5434979,85.2171085 Z M76.6378324,86.8760638 L70.3090644,86.8760638 C70.3631943,87.5978806 70.5989054,88.1719085 71.0161976,88.5986369 C71.4334898,89.0194928 71.9683915,89.2299207 72.6209027,89.2299207 C73.1287394,89.2299207 73.5489842,89.1095364 73.8811449,88.8687676 C74.2078926,88.6284883 74.5794204,88.1836533 74.9967126,87.5342629 L76.7195193,88.4899973 C76.4532987,88.941194 76.1723154,89.3273048 75.8760773,89.6488192 C75.5798392,89.9703335 75.2624412,90.2350813 74.9243754,90.442573 C74.5858176,90.6500648 74.2197027,90.8017686 73.827015,90.8976846 C73.4343273,90.99409 73.0076853,91.042048 72.5485655,91.042048 C71.2307488,91.042048 70.1732476,90.6211921 69.3750778,89.7799696 C68.576908,88.931896 68.1778231,87.8078192 68.1778231,86.4072499 C68.1778231,85.0184253 68.5650979,83.8943485 69.3386632,83.0350195 C70.1186256,82.1874352 71.1520144,81.7636431 72.4398136,81.7636431 C73.739423,81.7636431 74.7669067,82.1752011 75.5227567,82.9988063 C76.2722096,83.8165391 76.6471821,84.9499139 76.6471821,86.3984413 L76.6378324,86.8760638 Z" id="Fill-18" fill="#458AC9" mask="url(#mask-2)"></path>
                    <path d="M15.7659201,97.8828163 C15.7437761,97.3112352 15.7221242,96.6305252 15.7250767,95.9395385 L15.7053931,95.9395385 C15.5538294,96.5434179 15.354533,97.2138511 15.1759044,97.7707512 L14.5952383,99.610283 L13.7616381,99.610283 L13.2503567,97.7869003 C13.0973167,97.2314683 12.9398479,96.5610351 12.8222385,95.9395385 L12.8074758,95.9395385 C12.7838555,96.5810991 12.7572826,97.3092778 12.7292335,97.8970079 L12.6401652,99.6876031 L11.648112,99.6876031 L11.9517315,94.9696125 L13.3817447,94.9696125 L13.8443092,96.5463541 C13.9943966,97.087105 14.1410394,97.6802182 14.2468387,98.2332033 L14.2694748,98.2332033 C14.3993865,97.6870693 14.5598078,97.0645941 14.7207212,96.5390135 L15.2246213,94.9696125 L16.6275695,94.9696125 L16.8824721,99.6876031 L15.8397336,99.6876031 L15.7659201,97.8828163 Z" id="Fill-19" fill="#686A86" mask="url(#mask-2)"></path>
                    <polygon id="Fill-20" fill="#686A86" mask="url(#mask-2)" points="20.5294486 97.6916694 18.7840058 97.6916694 18.7840058 98.8132994 20.7351422 98.8132994 20.7351422 99.6873094 17.7107578 99.6873094 17.7107578 94.9698082 20.6332796 94.9698082 20.6332796 95.8433289 18.7840058 95.8433289 18.7840058 96.8259786 20.5294486 96.8259786"></polygon>
                    <path d="M22.5410629,98.8842576 C22.63456,98.9018748 22.7841553,98.9028536 22.9150512,98.9028536 C23.8869287,98.9111728 24.5251771,98.377273 24.5251771,97.2492813 C24.5276297,96.2690785 23.9504083,95.7537747 23.0282319,95.7537747 C22.793505,95.7537747 22.6355441,95.7738388 22.5410629,95.7948816 L22.5410629,98.8842576 Z M21.4697832,95.0344047 C21.8644393,94.9702976 22.3786732,94.9326163 22.9160354,94.9326163 C23.8160678,94.9326163 24.4046073,95.0980225 24.8588062,95.4391115 C25.3513882,95.8051583 25.6609127,96.3801649 25.6609127,97.2140469 C25.6609127,98.1183977 25.3321967,98.7433198 24.8765215,99.1255157 C24.3770502,99.5390311 23.6133267,99.7367355 22.6881977,99.7367355 C22.131152,99.7367355 21.7335434,99.7034586 21.4697832,99.6672454 L21.4697832,95.0344047 Z" id="Fill-21" fill="#686A86" mask="url(#mask-2)"></path>
                    <polygon id="Fill-22" fill="#686A86" mask="url(#mask-2)" points="26.3686364 99.6875541 27.4413924 99.6875541 27.4413924 94.9695635 26.3686364 94.9695635"></polygon>
                    <path d="M31.8547005,99.5573824 C31.6622933,99.6518303 31.2135074,99.7609592 30.642191,99.7609592 C28.999595,99.7609592 28.1527083,98.7401389 28.1527083,97.3953575 C28.1527083,95.7863176 29.31158,94.8961584 30.7440536,94.8961584 C31.3015914,94.8961584 31.7252808,95.0043086 31.9117829,95.1051183 L31.6928029,95.9487876 C31.479728,95.8562972 31.1751243,95.7716366 30.7917863,95.7716366 C29.9453917,95.7716366 29.2820546,96.284983 29.2820546,97.3332078 C29.2820546,98.2791549 29.843037,98.8732469 30.7981835,98.8732469 C31.1268995,98.8732469 31.4821884,98.8086504 31.6947713,98.7210536 L31.8547005,99.5573824 Z" id="Fill-23" fill="#686A86" mask="url(#mask-2)"></path>
                    <path d="M34.937742,97.6813927 L34.641996,96.678679 C34.5608012,96.3997396 34.4766538,96.0464164 34.4038245,95.7699238 L34.3890618,95.7699238 C34.3196771,96.0478845 34.247832,96.4061014 34.1720502,96.6801471 L33.8881143,97.6813927 L34.937742,97.6813927 Z M33.7326139,98.4761253 L33.3975007,99.6873094 L32.2883301,99.6873094 L33.7365506,94.9693188 L35.139991,94.9693188 L36.6172448,99.6873094 L35.4613256,99.6873094 L35.096687,98.4761253 L33.7326139,98.4761253 Z" id="Fill-24" fill="#686A86" mask="url(#mask-2)"></path>
                    <polygon id="Fill-25" fill="#686A86" mask="url(#mask-2)" points="37.2506629 94.9695635 38.3234188 94.9695635 38.3234188 98.7929906 40.2110756 98.7929906 40.2110756 99.6875541 37.2506629 99.6875541"></polygon>
                    <path d="M46.230073,99.4694431 C45.8974203,99.5834657 45.2714819,99.7346802 44.6460357,99.7346802 C43.7789733,99.7346802 43.1540192,99.5188692 42.7175354,99.1019282 C42.2820359,98.6918384 42.0438644,98.077193 42.0467898,97.3842488 C42.0522299,95.8148477 43.202244,94.9222417 44.7552796,94.9222417 C45.3684236,94.9222417 45.8398458,95.0377324 46.0745726,95.1488188 L45.8501796,96.0032542 C45.5869116,95.8911891 45.2680373,95.8031029 44.7459299,95.8031029 C43.8518026,95.8031029 43.1722265,96.3032364 43.1722265,97.3294397 C43.1722265,98.3037701 43.7902914,98.8743724 44.6686718,98.8743724 C44.9112721,98.8743724 45.107616,98.8464785 45.1937317,98.8078184 L45.1937317,97.8163602 L44.4600257,97.8163602 L44.4600257,96.9839463 L46.230073,96.9839463 L46.230073,99.4694431 Z" id="Fill-26" fill="#686A86" mask="url(#mask-2)"></path>
                    <path d="M48.1320988,97.0632238 L48.5523436,97.0632238 C49.0842928,97.0632238 49.4026749,96.7935824 49.4026749,96.3830032 C49.4026749,95.9513812 49.1049605,95.7306766 48.614839,95.7277404 C48.3579681,95.7277404 48.2073886,95.7443788 48.1320988,95.7634642 L48.1320988,97.0632238 Z M47.0691847,95.0343068 C47.4136476,94.9765615 47.9239448,94.9325184 48.4947691,94.9325184 C49.1984576,94.9325184 49.6910396,95.0396899 50.0295974,95.3063951 C50.3130412,95.530036 50.4690337,95.861827 50.4690337,96.2958958 C50.4690337,96.892924 50.0394392,97.3093756 49.6314967,97.4552071 L49.6314967,97.4772286 C49.9607049,97.6093578 50.1457306,97.9220635 50.2653085,98.3561324 C50.4119513,98.8895428 50.5551494,99.5046775 50.6481544,99.6872116 L49.5498098,99.6872116 C49.4769805,99.5506781 49.3588789,99.1719077 49.2235542,98.5876031 C49.0916741,97.9979155 48.8923777,97.8403392 48.4509731,97.8349562 L48.1320988,97.8349562 L48.1320988,99.6872116 L47.0691847,99.6872116 L47.0691847,95.0343068 Z" id="Fill-27" fill="#686A86" mask="url(#mask-2)"></path>
                    <path d="M52.1267369,97.3404015 C52.1267369,98.2648164 52.5646969,98.9161644 53.2801956,98.9161644 C54.0055361,98.9161644 54.4198758,98.234965 54.4198758,97.3174012 C54.4198758,96.4668808 54.01587,95.7406597 53.2777351,95.7406597 C52.5509184,95.7406597 52.1267369,96.4228377 52.1267369,97.3404015 M55.5536508,97.2811881 C55.5536508,98.829057 54.6142513,99.764238 53.2270499,99.764238 C51.820657,99.764238 50.9929618,98.7062258 50.9929618,97.3604656 C50.9929618,95.9501089 51.9048044,94.892586 53.3023396,94.892586 C54.7579415,94.892586 55.5536508,95.9760454 55.5536508,97.2811881" id="Fill-28" fill="#686A86" mask="url(#mask-2)"></path>
                    <path d="M57.3270936,94.9695635 L57.3270936,97.6826161 C57.3270936,98.4979021 57.6425232,98.9138643 58.1867746,98.9138643 C58.7502175,98.9138643 59.0597421,98.5184555 59.0597421,97.6826161 L59.0597421,94.9695635 L60.132498,94.9695635 L60.132498,97.6175302 C60.132498,99.0724194 59.3923948,99.7643848 58.150852,99.7643848 C56.9531053,99.7643848 56.2548297,99.1037389 56.2548297,97.6043173 L56.2548297,94.9695635 L57.3270936,94.9695635 Z" id="Fill-29" fill="#686A86" mask="url(#mask-2)"></path>
                    <path d="M62.1247239,97.1717166 C62.2137922,97.19227 62.3245124,97.2000999 62.480997,97.2000999 C63.050345,97.2000999 63.4021892,96.9133306 63.4021892,96.4352187 C63.4021892,96.0011499 63.1034907,95.7427639 62.5626839,95.7427639 C62.3505931,95.7427639 62.2029662,95.7598918 62.1247239,95.7779984 L62.1247239,97.1717166 Z M61.0618097,95.0322026 C61.3920021,94.9773934 61.8565349,94.932861 62.5100303,94.932861 C63.1684465,94.932861 63.6438054,95.0600965 63.9616954,95.3140781 C64.2653149,95.5479957 64.4646113,95.9419364 64.4646113,96.404878 C64.4646113,96.8673301 64.3140318,97.2612708 64.0315722,97.5221036 C63.6649652,97.8641714 63.1187455,98.022237 62.4908388,98.022237 C62.3486248,98.022237 62.2216656,98.0129391 62.1247239,97.9977687 L62.1247239,99.6875541 L61.0618097,99.6875541 L61.0618097,95.0322026 Z" id="Fill-30" fill="#686A86" mask="url(#mask-2)"></path>
                    <path d="M42.2015792,40.3730508 C50.3451747,39.1271215 56.9012882,49.4033464 58.0070142,54.3528078 C59.8863054,62.763075 55.6577771,68.5253755 55.6577771,68.5253755 C63.4884034,61.3615269 64.4686464,55.3976071 64.7412642,51.0823658 C65.1866056,44.0193269 61.510202,37.3531649 56.9416396,35.6584858 C48.1411041,32.3939162 42.2015792,40.3730508 42.2015792,40.3730508" id="Fill-31" fill="#124F9D" mask="url(#mask-2)"></path>
                    <path d="M38.992415,43.4664886 C38.8433118,37.2216719 45.6966476,34.7249197 49.5506956,34.1073381 C55.1250898,33.213264 59.9377288,36.7553048 59.9377288,36.7553048 C55.2363021,31.0487922 51.1012708,30.1322071 48.0916491,29.7715434 C43.1653372,29.1813664 38.3531903,31.4603501 36.9846883,34.5551092 C34.3485628,40.5170716 38.992415,43.4664886 38.992415,43.4664886" id="Fill-32" fill="#458AC9" mask="url(#mask-2)"></path>
                    <path d="M45.6351364,46.4103268 C44.1298334,45.5142952 41.4385938,46.3814541 39.6842934,46.4103268 C36.9590996,46.4553486 34.8219533,44.221876 34.3593888,41.4266098 C33.4642773,36.0171431 36.8651105,32.3938673 36.8651105,32.3938673 C30.2878371,37.3775843 31.3758478,44.537518 32.4805896,47.3450185 C35.2992804,54.508867 44.7070548,54.1393947 46.575028,52.0170085 C48.7672885,49.52515 47.5267299,47.5358717 45.6351364,46.4103268" id="Fill-33" fill="#124F9D" mask="url(#mask-2)"></path>
                    <path d="M31.5406487,11.0576467 C31.5406487,4.98361919 37.8049529,0.000391493877 37.8049529,0.000391493877 C33.0380782,0.840145861 28.5762993,2.61312376 24.5406701,5.07659898 C17.3359821,9.47552206 13.9459749,16.3878358 18.6990711,26.7873813 C21.3327362,32.5491925 26.9548631,36.2184688 28.6776698,37.2402679 C29.3272284,35.3933955 30.3079636,33.7256316 31.5406487,32.3196792 L31.5406487,11.0576467 Z" id="Fill-34" fill="#458AC9" mask="url(#mask-2)"></path>
                    <path d="M28.4564754,37.9190693 L26.9669193,37.4620002 C22.3491478,35.3748485 18.6525686,31.6346138 16.7841033,26.9450065 C16.0641758,25.1377729 15.5711018,23.2811132 15.2537038,21.4919862 C14.0564491,14.7440999 16.3392541,11.451147 16.3392541,11.451147 C12.5875608,15.5300238 9.57990743,20.1750987 7.29907082,25.0966661 C3.22702704,33.8837462 0.857614249,43.1445338 13.267629,47.4235619 C19.4625486,49.5601397 27.2872698,48.8290249 29.001711,48.633278 C28.2207643,46.768299 27.7823122,44.6987645 27.7823122,42.5171649 C27.7823122,40.9110613 28.0209758,39.3666179 28.4564754,37.9190693" id="Fill-35" fill="#124F9D" mask="url(#mask-2)"></path>
                    <path d="M35.9149341,56.0569806 C32.2631351,59.4419346 26.377248,62.5812261 21.5232734,62.6536525 C19.5691844,62.6830145 17.6485576,62.4833526 15.8539058,62.1447104 C9.08422529,60.867951 6.17056109,56.6892433 6.17056109,56.6892433 C8.67726696,61.6230448 13.3181667,67.1235338 18.0727391,69.7710112 C25.9028733,74.132253 34.556766,75.2323508 41.2501726,70.0827382 C48.1108898,64.8049113 48.2304676,57.7232765 48.0656175,55.4237393 C46.0962738,56.6246468 43.8262632,57.3122079 41.4071493,57.3122079 C39.4520762,57.3122079 37.5954211,56.8619899 35.9149341,56.0569806" id="Fill-36" fill="#124F9D" mask="url(#mask-2)"></path>
                    <path d="M29.3178295,49.3386521 C28.6131568,49.6420598 27.0074675,50.1108738 23.5618541,50.3286422 C17.2621194,50.7274766 12.1330666,49.3112475 8.36316599,46.7220049 C3.55840037,43.4217115 3.03875345,39.2464293 3.03875345,39.2464293 C2.72529219,42.9842171 2.7636752,48.1607449 4.29161429,51.7052326 C7.11030514,58.2466059 15.5668698,60.7384644 21.2047436,60.7384644 C27.2776248,60.7384644 32.9937409,56.6625238 34.6574968,55.3671684 C32.3874862,53.9582798 30.5278785,51.8623195 29.3178295,49.3386521" id="Fill-37" fill="#458AC9" mask="url(#mask-2)"></path>
                    <path d="M51.7427592,46.5661414 C52.3691896,49.9922022 51.271337,52.9753855 49.5790399,54.3554014 L49.7069833,58.5580882 C49.7768601,63.9802784 46.9251992,67.4728932 43.9510079,70.1923075 C40.1540424,73.6648582 34.9861144,74.7551687 34.9861144,74.7551687 C38.3977736,75.1383433 46.6452001,73.6643688 49.7069833,71.9515831 C54.7184267,69.148487 56.7197562,64.6438605 56.9106871,59.8040175 C57.0898078,55.2768802 54.2484808,48.7467623 51.7427592,46.5661414" id="Fill-38" fill="#458AC9" mask="url(#mask-2)"></path>
                </g>
            </g>
        </g>
    </g>
</svg>